<mxfile host="app.diagrams.net" modified="2023-12-03T18:51:41.428Z" agent="Mozilla/5.0 (Windows NT 10.0; Win64; x64) AppleWebKit/537.36 (KHTML, like Gecko) Chrome/119.0.0.0 Safari/537.36 Edg/119.0.0.0" etag="yR8QtAWtunfddj9HDRyd" version="22.1.5" type="device">
  <diagram id="C5RBs43oDa-KdzZeNtuy" name="Page-1">
    <mxGraphModel dx="6466" dy="1926" grid="1" gridSize="10" guides="1" tooltips="1" connect="1" arrows="1" fold="1" page="1" pageScale="1" pageWidth="850" pageHeight="1100" math="0" shadow="0">
      <root>
        <mxCell id="WIyWlLk6GJQsqaUBKTNV-0" />
        <mxCell id="WIyWlLk6GJQsqaUBKTNV-1" parent="WIyWlLk6GJQsqaUBKTNV-0" />
        <mxCell id="0T9Lj9NKAyRKnuzEVl1E-0" value="ActivationFunctions" style="swimlane;fontStyle=2;align=center;verticalAlign=top;childLayout=stackLayout;horizontal=1;startSize=26;horizontalStack=0;resizeParent=1;resizeLast=0;collapsible=1;marginBottom=0;rounded=0;shadow=0;strokeWidth=1;" parent="WIyWlLk6GJQsqaUBKTNV-1" vertex="1">
          <mxGeometry x="-420" y="370" width="160" height="138" as="geometry">
            <mxRectangle x="230" y="140" width="160" height="26" as="alternateBounds" />
          </mxGeometry>
        </mxCell>
        <mxCell id="0T9Lj9NKAyRKnuzEVl1E-4" value="" style="line;html=1;strokeWidth=1;align=left;verticalAlign=middle;spacingTop=-1;spacingLeft=3;spacingRight=3;rotatable=0;labelPosition=right;points=[];portConstraint=eastwest;" parent="0T9Lj9NKAyRKnuzEVl1E-0" vertex="1">
          <mxGeometry y="26" width="160" height="8" as="geometry" />
        </mxCell>
        <mxCell id="0T9Lj9NKAyRKnuzEVl1E-5" value="+ sigmoid(double x): double" style="text;align=left;verticalAlign=top;spacingLeft=4;spacingRight=4;overflow=hidden;rotatable=0;points=[[0,0.5],[1,0.5]];portConstraint=eastwest;fontStyle=4" parent="0T9Lj9NKAyRKnuzEVl1E-0" vertex="1">
          <mxGeometry y="34" width="160" height="26" as="geometry" />
        </mxCell>
        <mxCell id="0T9Lj9NKAyRKnuzEVl1E-18" value="+ relu(double x): double" style="text;align=left;verticalAlign=top;spacingLeft=4;spacingRight=4;overflow=hidden;rotatable=0;points=[[0,0.5],[1,0.5]];portConstraint=eastwest;fontStyle=4" parent="0T9Lj9NKAyRKnuzEVl1E-0" vertex="1">
          <mxGeometry y="60" width="160" height="26" as="geometry" />
        </mxCell>
        <mxCell id="0T9Lj9NKAyRKnuzEVl1E-19" value="+ tanh(double x): double" style="text;align=left;verticalAlign=top;spacingLeft=4;spacingRight=4;overflow=hidden;rotatable=0;points=[[0,0.5],[1,0.5]];portConstraint=eastwest;fontStyle=4" parent="0T9Lj9NKAyRKnuzEVl1E-0" vertex="1">
          <mxGeometry y="86" width="160" height="26" as="geometry" />
        </mxCell>
        <mxCell id="0T9Lj9NKAyRKnuzEVl1E-6" value="Car" style="swimlane;fontStyle=2;align=center;verticalAlign=top;childLayout=stackLayout;horizontal=1;startSize=26;horizontalStack=0;resizeParent=1;resizeLast=0;collapsible=1;marginBottom=0;rounded=0;shadow=0;strokeWidth=1;" parent="WIyWlLk6GJQsqaUBKTNV-1" vertex="1">
          <mxGeometry x="-906" y="100" width="346" height="502" as="geometry">
            <mxRectangle x="230" y="140" width="160" height="26" as="alternateBounds" />
          </mxGeometry>
        </mxCell>
        <mxCell id="0T9Lj9NKAyRKnuzEVl1E-7" value="- LEARNING_RATE: float" style="text;align=left;verticalAlign=top;spacingLeft=4;spacingRight=4;overflow=hidden;rotatable=0;points=[[0,0.5],[1,0.5]];portConstraint=eastwest;fontStyle=4" parent="0T9Lj9NKAyRKnuzEVl1E-6" vertex="1">
          <mxGeometry y="26" width="346" height="26" as="geometry" />
        </mxCell>
        <mxCell id="0T9Lj9NKAyRKnuzEVl1E-8" value="- CAR_RADIUS: int" style="text;align=left;verticalAlign=top;spacingLeft=4;spacingRight=4;overflow=hidden;rotatable=0;points=[[0,0.5],[1,0.5]];portConstraint=eastwest;rounded=0;shadow=0;html=0;fontStyle=4" parent="0T9Lj9NKAyRKnuzEVl1E-6" vertex="1">
          <mxGeometry y="52" width="346" height="26" as="geometry" />
        </mxCell>
        <mxCell id="0T9Lj9NKAyRKnuzEVl1E-9" value="- SENSOR_COUNT: int" style="text;align=left;verticalAlign=top;spacingLeft=4;spacingRight=4;overflow=hidden;rotatable=0;points=[[0,0.5],[1,0.5]];portConstraint=eastwest;rounded=0;shadow=0;html=0;fontStyle=4" parent="0T9Lj9NKAyRKnuzEVl1E-6" vertex="1">
          <mxGeometry y="78" width="346" height="26" as="geometry" />
        </mxCell>
        <mxCell id="0T9Lj9NKAyRKnuzEVl1E-20" value="- CAR_COLOR: Color" style="text;align=left;verticalAlign=top;spacingLeft=4;spacingRight=4;overflow=hidden;rotatable=0;points=[[0,0.5],[1,0.5]];portConstraint=eastwest;rounded=0;shadow=0;html=0;fontStyle=4" parent="0T9Lj9NKAyRKnuzEVl1E-6" vertex="1">
          <mxGeometry y="104" width="346" height="26" as="geometry" />
        </mxCell>
        <mxCell id="0T9Lj9NKAyRKnuzEVl1E-23" value="- MIN_SPEED: double" style="text;align=left;verticalAlign=top;spacingLeft=4;spacingRight=4;overflow=hidden;rotatable=0;points=[[0,0.5],[1,0.5]];portConstraint=eastwest;rounded=0;shadow=0;html=0;fontStyle=4" parent="0T9Lj9NKAyRKnuzEVl1E-6" vertex="1">
          <mxGeometry y="130" width="346" height="26" as="geometry" />
        </mxCell>
        <mxCell id="0T9Lj9NKAyRKnuzEVl1E-25" value="- ANGULAR_VELOCITY: double" style="text;align=left;verticalAlign=top;spacingLeft=4;spacingRight=4;overflow=hidden;rotatable=0;points=[[0,0.5],[1,0.5]];portConstraint=eastwest;rounded=0;shadow=0;html=0;fontStyle=4" parent="0T9Lj9NKAyRKnuzEVl1E-6" vertex="1">
          <mxGeometry y="156" width="346" height="26" as="geometry" />
        </mxCell>
        <mxCell id="0T9Lj9NKAyRKnuzEVl1E-24" value="- VELOCITY: double" style="text;align=left;verticalAlign=top;spacingLeft=4;spacingRight=4;overflow=hidden;rotatable=0;points=[[0,0.5],[1,0.5]];portConstraint=eastwest;rounded=0;shadow=0;html=0;fontStyle=4" parent="0T9Lj9NKAyRKnuzEVl1E-6" vertex="1">
          <mxGeometry y="182" width="346" height="26" as="geometry" />
        </mxCell>
        <mxCell id="0T9Lj9NKAyRKnuzEVl1E-22" value="- fitnessScore: int" style="text;align=left;verticalAlign=top;spacingLeft=4;spacingRight=4;overflow=hidden;rotatable=0;points=[[0,0.5],[1,0.5]];portConstraint=eastwest;rounded=0;shadow=0;html=0;fontStyle=0" parent="0T9Lj9NKAyRKnuzEVl1E-6" vertex="1">
          <mxGeometry y="208" width="346" height="26" as="geometry" />
        </mxCell>
        <mxCell id="0T9Lj9NKAyRKnuzEVl1E-27" value="- sensorArray[]: Sensor" style="text;align=left;verticalAlign=top;spacingLeft=4;spacingRight=4;overflow=hidden;rotatable=0;points=[[0,0.5],[1,0.5]];portConstraint=eastwest;rounded=0;shadow=0;html=0;fontStyle=0" parent="0T9Lj9NKAyRKnuzEVl1E-6" vertex="1">
          <mxGeometry y="234" width="346" height="26" as="geometry" />
        </mxCell>
        <mxCell id="0T9Lj9NKAyRKnuzEVl1E-26" value="- brain: NeuralNetwork" style="text;align=left;verticalAlign=top;spacingLeft=4;spacingRight=4;overflow=hidden;rotatable=0;points=[[0,0.5],[1,0.5]];portConstraint=eastwest;rounded=0;shadow=0;html=0;fontStyle=0" parent="0T9Lj9NKAyRKnuzEVl1E-6" vertex="1">
          <mxGeometry y="260" width="346" height="26" as="geometry" />
        </mxCell>
        <mxCell id="0T9Lj9NKAyRKnuzEVl1E-10" value="" style="line;html=1;strokeWidth=1;align=left;verticalAlign=middle;spacingTop=-1;spacingLeft=3;spacingRight=3;rotatable=0;labelPosition=right;points=[];portConstraint=eastwest;" parent="0T9Lj9NKAyRKnuzEVl1E-6" vertex="1">
          <mxGeometry y="286" width="346" height="8" as="geometry" />
        </mxCell>
        <mxCell id="0T9Lj9NKAyRKnuzEVl1E-21" value="+ Car(Point2D)" style="text;align=left;verticalAlign=top;spacingLeft=4;spacingRight=4;overflow=hidden;rotatable=0;points=[[0,0.5],[1,0.5]];portConstraint=eastwest;rounded=0;shadow=0;html=0;fontStyle=0" parent="0T9Lj9NKAyRKnuzEVl1E-6" vertex="1">
          <mxGeometry y="294" width="346" height="26" as="geometry" />
        </mxCell>
        <mxCell id="0T9Lj9NKAyRKnuzEVl1E-29" value="+ update(double, double): void" style="text;align=left;verticalAlign=top;spacingLeft=4;spacingRight=4;overflow=hidden;rotatable=0;points=[[0,0.5],[1,0.5]];portConstraint=eastwest;" parent="0T9Lj9NKAyRKnuzEVl1E-6" vertex="1">
          <mxGeometry y="320" width="346" height="26" as="geometry" />
        </mxCell>
        <mxCell id="0T9Lj9NKAyRKnuzEVl1E-11" value="+ multiplyVectors(double[], double[]): double" style="text;align=left;verticalAlign=top;spacingLeft=4;spacingRight=4;overflow=hidden;rotatable=0;points=[[0,0.5],[1,0.5]];portConstraint=eastwest;fontStyle=4" parent="0T9Lj9NKAyRKnuzEVl1E-6" vertex="1">
          <mxGeometry y="346" width="346" height="26" as="geometry" />
        </mxCell>
        <mxCell id="0T9Lj9NKAyRKnuzEVl1E-30" value="+ getSensorArray(): Sensor[]" style="text;align=left;verticalAlign=top;spacingLeft=4;spacingRight=4;overflow=hidden;rotatable=0;points=[[0,0.5],[1,0.5]];portConstraint=eastwest;" parent="0T9Lj9NKAyRKnuzEVl1E-6" vertex="1">
          <mxGeometry y="372" width="346" height="26" as="geometry" />
        </mxCell>
        <mxCell id="0T9Lj9NKAyRKnuzEVl1E-31" value="+ getBrain(): NeuralNetwork" style="text;align=left;verticalAlign=top;spacingLeft=4;spacingRight=4;overflow=hidden;rotatable=0;points=[[0,0.5],[1,0.5]];portConstraint=eastwest;" parent="0T9Lj9NKAyRKnuzEVl1E-6" vertex="1">
          <mxGeometry y="398" width="346" height="26" as="geometry" />
        </mxCell>
        <mxCell id="0T9Lj9NKAyRKnuzEVl1E-28" value="+ setBrain(NeuralNetwork): void" style="text;align=left;verticalAlign=top;spacingLeft=4;spacingRight=4;overflow=hidden;rotatable=0;points=[[0,0.5],[1,0.5]];portConstraint=eastwest;" parent="0T9Lj9NKAyRKnuzEVl1E-6" vertex="1">
          <mxGeometry y="424" width="346" height="26" as="geometry" />
        </mxCell>
        <mxCell id="0T9Lj9NKAyRKnuzEVl1E-33" value="+ getFitnessScore(): int" style="text;align=left;verticalAlign=top;spacingLeft=4;spacingRight=4;overflow=hidden;rotatable=0;points=[[0,0.5],[1,0.5]];portConstraint=eastwest;" parent="0T9Lj9NKAyRKnuzEVl1E-6" vertex="1">
          <mxGeometry y="450" width="346" height="26" as="geometry" />
        </mxCell>
        <mxCell id="0T9Lj9NKAyRKnuzEVl1E-32" value="+ setFitnessScore(int): int" style="text;align=left;verticalAlign=top;spacingLeft=4;spacingRight=4;overflow=hidden;rotatable=0;points=[[0,0.5],[1,0.5]];portConstraint=eastwest;" parent="0T9Lj9NKAyRKnuzEVl1E-6" vertex="1">
          <mxGeometry y="476" width="346" height="26" as="geometry" />
        </mxCell>
        <mxCell id="0T9Lj9NKAyRKnuzEVl1E-12" value="HiddenLayer" style="swimlane;fontStyle=2;align=center;verticalAlign=top;childLayout=stackLayout;horizontal=1;startSize=26;horizontalStack=0;resizeParent=1;resizeLast=0;collapsible=1;marginBottom=0;rounded=0;shadow=0;strokeWidth=1;" parent="WIyWlLk6GJQsqaUBKTNV-1" vertex="1">
          <mxGeometry x="-420" y="560" width="160" height="320" as="geometry">
            <mxRectangle x="230" y="140" width="160" height="26" as="alternateBounds" />
          </mxGeometry>
        </mxCell>
        <mxCell id="0T9Lj9NKAyRKnuzEVl1E-13" value="- weights: double[][]" style="text;align=left;verticalAlign=top;spacingLeft=4;spacingRight=4;overflow=hidden;rotatable=0;points=[[0,0.5],[1,0.5]];portConstraint=eastwest;" parent="0T9Lj9NKAyRKnuzEVl1E-12" vertex="1">
          <mxGeometry y="26" width="160" height="26" as="geometry" />
        </mxCell>
        <mxCell id="0T9Lj9NKAyRKnuzEVl1E-14" value="- currentLayerSize: int" style="text;align=left;verticalAlign=top;spacingLeft=4;spacingRight=4;overflow=hidden;rotatable=0;points=[[0,0.5],[1,0.5]];portConstraint=eastwest;rounded=0;shadow=0;html=0;" parent="0T9Lj9NKAyRKnuzEVl1E-12" vertex="1">
          <mxGeometry y="52" width="160" height="26" as="geometry" />
        </mxCell>
        <mxCell id="0T9Lj9NKAyRKnuzEVl1E-15" value="- previousLayerSize: int" style="text;align=left;verticalAlign=top;spacingLeft=4;spacingRight=4;overflow=hidden;rotatable=0;points=[[0,0.5],[1,0.5]];portConstraint=eastwest;rounded=0;shadow=0;html=0;" parent="0T9Lj9NKAyRKnuzEVl1E-12" vertex="1">
          <mxGeometry y="78" width="160" height="26" as="geometry" />
        </mxCell>
        <mxCell id="0T9Lj9NKAyRKnuzEVl1E-34" value="- random: Random" style="text;align=left;verticalAlign=top;spacingLeft=4;spacingRight=4;overflow=hidden;rotatable=0;points=[[0,0.5],[1,0.5]];portConstraint=eastwest;rounded=0;shadow=0;html=0;" parent="0T9Lj9NKAyRKnuzEVl1E-12" vertex="1">
          <mxGeometry y="104" width="160" height="26" as="geometry" />
        </mxCell>
        <mxCell id="0T9Lj9NKAyRKnuzEVl1E-16" value="" style="line;html=1;strokeWidth=1;align=left;verticalAlign=middle;spacingTop=-1;spacingLeft=3;spacingRight=3;rotatable=0;labelPosition=right;points=[];portConstraint=eastwest;" parent="0T9Lj9NKAyRKnuzEVl1E-12" vertex="1">
          <mxGeometry y="130" width="160" height="8" as="geometry" />
        </mxCell>
        <mxCell id="0T9Lj9NKAyRKnuzEVl1E-17" value="+ hiddenLayer(int, int)" style="text;align=left;verticalAlign=top;spacingLeft=4;spacingRight=4;overflow=hidden;rotatable=0;points=[[0,0.5],[1,0.5]];portConstraint=eastwest;" parent="0T9Lj9NKAyRKnuzEVl1E-12" vertex="1">
          <mxGeometry y="138" width="160" height="26" as="geometry" />
        </mxCell>
        <mxCell id="0T9Lj9NKAyRKnuzEVl1E-35" value="+ clone(): HiddenLayer" style="text;align=left;verticalAlign=top;spacingLeft=4;spacingRight=4;overflow=hidden;rotatable=0;points=[[0,0.5],[1,0.5]];portConstraint=eastwest;" parent="0T9Lj9NKAyRKnuzEVl1E-12" vertex="1">
          <mxGeometry y="164" width="160" height="26" as="geometry" />
        </mxCell>
        <mxCell id="0T9Lj9NKAyRKnuzEVl1E-36" value="+ mutate(float): void" style="text;align=left;verticalAlign=top;spacingLeft=4;spacingRight=4;overflow=hidden;rotatable=0;points=[[0,0.5],[1,0.5]];portConstraint=eastwest;" parent="0T9Lj9NKAyRKnuzEVl1E-12" vertex="1">
          <mxGeometry y="190" width="160" height="26" as="geometry" />
        </mxCell>
        <mxCell id="0T9Lj9NKAyRKnuzEVl1E-38" value="+ initRandom(): void" style="text;align=left;verticalAlign=top;spacingLeft=4;spacingRight=4;overflow=hidden;rotatable=0;points=[[0,0.5],[1,0.5]];portConstraint=eastwest;" parent="0T9Lj9NKAyRKnuzEVl1E-12" vertex="1">
          <mxGeometry y="216" width="160" height="26" as="geometry" />
        </mxCell>
        <mxCell id="0T9Lj9NKAyRKnuzEVl1E-37" value="+ activate(double[]): double[]" style="text;align=left;verticalAlign=top;spacingLeft=4;spacingRight=4;overflow=hidden;rotatable=0;points=[[0,0.5],[1,0.5]];portConstraint=eastwest;" parent="0T9Lj9NKAyRKnuzEVl1E-12" vertex="1">
          <mxGeometry y="242" width="160" height="26" as="geometry" />
        </mxCell>
        <mxCell id="0T9Lj9NKAyRKnuzEVl1E-39" value="+ toString(): String" style="text;align=left;verticalAlign=top;spacingLeft=4;spacingRight=4;overflow=hidden;rotatable=0;points=[[0,0.5],[1,0.5]];portConstraint=eastwest;" parent="0T9Lj9NKAyRKnuzEVl1E-12" vertex="1">
          <mxGeometry y="268" width="160" height="26" as="geometry" />
        </mxCell>
        <mxCell id="0T9Lj9NKAyRKnuzEVl1E-40" value="+ getWeights(): double[][]" style="text;align=left;verticalAlign=top;spacingLeft=4;spacingRight=4;overflow=hidden;rotatable=0;points=[[0,0.5],[1,0.5]];portConstraint=eastwest;" parent="0T9Lj9NKAyRKnuzEVl1E-12" vertex="1">
          <mxGeometry y="294" width="160" height="26" as="geometry" />
        </mxCell>
        <mxCell id="0T9Lj9NKAyRKnuzEVl1E-66" value="NeuralDisplay" style="swimlane;fontStyle=2;align=center;verticalAlign=top;childLayout=stackLayout;horizontal=1;startSize=26;horizontalStack=0;resizeParent=1;resizeLast=0;collapsible=1;marginBottom=0;rounded=0;shadow=0;strokeWidth=1;" parent="WIyWlLk6GJQsqaUBKTNV-1" vertex="1">
          <mxGeometry x="-950" y="964" width="290" height="440" as="geometry">
            <mxRectangle x="230" y="140" width="160" height="26" as="alternateBounds" />
          </mxGeometry>
        </mxCell>
        <mxCell id="0T9Lj9NKAyRKnuzEVl1E-72" value="&lt;span style=&quot;color: rgb(0, 0, 0); font-family: Helvetica; font-size: 12px; font-style: normal; font-variant-ligatures: normal; font-variant-caps: normal; font-weight: 400; letter-spacing: normal; orphans: 2; text-align: left; text-indent: 0px; text-transform: none; widows: 2; word-spacing: 0px; -webkit-text-stroke-width: 0px; background-color: rgb(251, 251, 251); text-decoration: underline; float: none; display: inline !important;&quot;&gt;- WIDTH: int&lt;/span&gt;" style="text;whiteSpace=wrap;html=1;" parent="0T9Lj9NKAyRKnuzEVl1E-66" vertex="1">
          <mxGeometry y="26" width="290" height="24" as="geometry" />
        </mxCell>
        <mxCell id="0T9Lj9NKAyRKnuzEVl1E-73" value="&lt;span style=&quot;color: rgb(0, 0, 0); font-family: Helvetica; font-size: 12px; font-style: normal; font-variant-ligatures: normal; font-variant-caps: normal; font-weight: 400; letter-spacing: normal; orphans: 2; text-align: left; text-indent: 0px; text-transform: none; widows: 2; word-spacing: 0px; -webkit-text-stroke-width: 0px; background-color: rgb(251, 251, 251); text-decoration: underline; float: none; display: inline !important;&quot;&gt;- HEIGHT: int&lt;/span&gt;" style="text;whiteSpace=wrap;html=1;" parent="0T9Lj9NKAyRKnuzEVl1E-66" vertex="1">
          <mxGeometry y="50" width="290" height="20" as="geometry" />
        </mxCell>
        <mxCell id="0T9Lj9NKAyRKnuzEVl1E-71" value="&lt;span style=&quot;color: rgb(0, 0, 0); font-family: Helvetica; font-size: 12px; font-style: normal; font-variant-ligatures: normal; font-variant-caps: normal; font-weight: 400; letter-spacing: normal; orphans: 2; text-align: left; text-indent: 0px; text-transform: none; widows: 2; word-spacing: 0px; -webkit-text-stroke-width: 0px; background-color: rgb(251, 251, 251); text-decoration: underline; float: none; display: inline !important;&quot;&gt;- PANE_PADDING: int&lt;/span&gt;" style="text;whiteSpace=wrap;html=1;" parent="0T9Lj9NKAyRKnuzEVl1E-66" vertex="1">
          <mxGeometry y="70" width="290" height="20" as="geometry" />
        </mxCell>
        <mxCell id="0T9Lj9NKAyRKnuzEVl1E-75" value="&lt;span style=&quot;color: rgb(0, 0, 0); font-family: Helvetica; font-size: 12px; font-style: normal; font-variant-ligatures: normal; font-variant-caps: normal; font-weight: 400; letter-spacing: normal; orphans: 2; text-align: left; text-indent: 0px; text-transform: none; widows: 2; word-spacing: 0px; -webkit-text-stroke-width: 0px; background-color: rgb(251, 251, 251); float: none; display: inline !important;&quot;&gt;- displayedCar: Car&lt;/span&gt;" style="text;whiteSpace=wrap;html=1;" parent="0T9Lj9NKAyRKnuzEVl1E-66" vertex="1">
          <mxGeometry y="90" width="290" height="20" as="geometry" />
        </mxCell>
        <mxCell id="0T9Lj9NKAyRKnuzEVl1E-76" value="&lt;span style=&quot;color: rgb(0, 0, 0); font-family: Helvetica; font-size: 12px; font-variant-ligatures: normal; font-variant-caps: normal; font-weight: 400; letter-spacing: normal; orphans: 2; text-align: left; text-indent: 0px; text-transform: none; widows: 2; word-spacing: 0px; -webkit-text-stroke-width: 0px; background-color: rgb(251, 251, 251); float: none; display: inline !important;&quot;&gt;&lt;i style=&quot;&quot;&gt;- neuralNetwork: NeuralNetwork&lt;/i&gt;&lt;/span&gt;" style="text;whiteSpace=wrap;html=1;" parent="0T9Lj9NKAyRKnuzEVl1E-66" vertex="1">
          <mxGeometry y="110" width="290" height="20" as="geometry" />
        </mxCell>
        <mxCell id="0T9Lj9NKAyRKnuzEVl1E-77" value="&lt;span style=&quot;color: rgb(0, 0, 0); font-family: Helvetica; font-size: 12px; font-variant-ligatures: normal; font-variant-caps: normal; font-weight: 400; letter-spacing: normal; orphans: 2; text-align: left; text-indent: 0px; text-transform: none; widows: 2; word-spacing: 0px; -webkit-text-stroke-width: 0px; background-color: rgb(251, 251, 251); float: none; display: inline !important;&quot;&gt;&lt;i style=&quot;&quot;&gt;- activations: double[][]&lt;/i&gt;&lt;/span&gt;" style="text;whiteSpace=wrap;html=1;" parent="0T9Lj9NKAyRKnuzEVl1E-66" vertex="1">
          <mxGeometry y="130" width="290" height="20" as="geometry" />
        </mxCell>
        <mxCell id="0T9Lj9NKAyRKnuzEVl1E-79" value="&lt;span style=&quot;color: rgb(0, 0, 0); font-family: Helvetica; font-size: 12px; font-variant-ligatures: normal; font-variant-caps: normal; font-weight: 400; letter-spacing: normal; orphans: 2; text-align: left; text-indent: 0px; text-transform: none; widows: 2; word-spacing: 0px; -webkit-text-stroke-width: 0px; background-color: rgb(251, 251, 251); float: none; display: inline !important;&quot;&gt;&lt;i style=&quot;&quot;&gt;- neuralNetwork: NeuralNetwork&lt;/i&gt;&lt;/span&gt;" style="text;whiteSpace=wrap;html=1;" parent="0T9Lj9NKAyRKnuzEVl1E-66" vertex="1">
          <mxGeometry y="150" width="290" height="20" as="geometry" />
        </mxCell>
        <mxCell id="0T9Lj9NKAyRKnuzEVl1E-78" value="&lt;span style=&quot;color: rgb(0, 0, 0); font-family: Helvetica; font-size: 12px; font-variant-ligatures: normal; font-variant-caps: normal; font-weight: 400; letter-spacing: normal; orphans: 2; text-align: left; text-indent: 0px; text-transform: none; widows: 2; word-spacing: 0px; -webkit-text-stroke-width: 0px; background-color: rgb(251, 251, 251); float: none; display: inline !important;&quot;&gt;&lt;i style=&quot;&quot;&gt;- nbLayers: int[]&lt;/i&gt;&lt;/span&gt;" style="text;whiteSpace=wrap;html=1;" parent="0T9Lj9NKAyRKnuzEVl1E-66" vertex="1">
          <mxGeometry y="170" width="290" height="20" as="geometry" />
        </mxCell>
        <mxCell id="0T9Lj9NKAyRKnuzEVl1E-80" value="&lt;span style=&quot;color: rgb(0, 0, 0); font-family: Helvetica; font-size: 12px; font-variant-ligatures: normal; font-variant-caps: normal; font-weight: 400; letter-spacing: normal; orphans: 2; text-align: left; text-indent: 0px; text-transform: none; widows: 2; word-spacing: 0px; -webkit-text-stroke-width: 0px; background-color: rgb(251, 251, 251); float: none; display: inline !important;&quot;&gt;&lt;i style=&quot;&quot;&gt;- lineWeights: ArrayList&amp;lt;Line&amp;gt;&lt;/i&gt;&lt;/span&gt;" style="text;whiteSpace=wrap;html=1;" parent="0T9Lj9NKAyRKnuzEVl1E-66" vertex="1">
          <mxGeometry y="190" width="290" height="20" as="geometry" />
        </mxCell>
        <mxCell id="0T9Lj9NKAyRKnuzEVl1E-81" value="&lt;span style=&quot;color: rgb(0, 0, 0); font-family: Helvetica; font-size: 12px; font-variant-ligatures: normal; font-variant-caps: normal; font-weight: 400; letter-spacing: normal; orphans: 2; text-align: left; text-indent: 0px; text-transform: none; widows: 2; word-spacing: 0px; -webkit-text-stroke-width: 0px; background-color: rgb(251, 251, 251); float: none; display: inline !important;&quot;&gt;&lt;i style=&quot;&quot;&gt;- neuronList: ArrayList&amp;lt;ArrayList&amp;lt;Circles&amp;gt;&amp;gt;&lt;/i&gt;&lt;/span&gt;" style="text;whiteSpace=wrap;html=1;" parent="0T9Lj9NKAyRKnuzEVl1E-66" vertex="1">
          <mxGeometry y="210" width="290" height="20" as="geometry" />
        </mxCell>
        <mxCell id="0T9Lj9NKAyRKnuzEVl1E-82" value="&lt;span style=&quot;color: rgb(0, 0, 0); font-family: Helvetica; font-size: 12px; font-variant-ligatures: normal; font-variant-caps: normal; font-weight: 400; letter-spacing: normal; orphans: 2; text-align: left; text-indent: 0px; text-transform: none; widows: 2; word-spacing: 0px; -webkit-text-stroke-width: 0px; background-color: rgb(251, 251, 251); float: none; display: inline !important;&quot;&gt;&lt;i style=&quot;&quot;&gt;+ timer: AnimationTimer&lt;/i&gt;&lt;/span&gt;" style="text;whiteSpace=wrap;html=1;" parent="0T9Lj9NKAyRKnuzEVl1E-66" vertex="1">
          <mxGeometry y="230" width="290" height="20" as="geometry" />
        </mxCell>
        <mxCell id="0T9Lj9NKAyRKnuzEVl1E-67" value="" style="line;html=1;strokeWidth=1;align=left;verticalAlign=middle;spacingTop=-1;spacingLeft=3;spacingRight=3;rotatable=0;labelPosition=right;points=[];portConstraint=eastwest;" parent="0T9Lj9NKAyRKnuzEVl1E-66" vertex="1">
          <mxGeometry y="250" width="290" height="8" as="geometry" />
        </mxCell>
        <mxCell id="0T9Lj9NKAyRKnuzEVl1E-68" value="+ NeuralDisplay(Car)" style="text;align=left;verticalAlign=top;spacingLeft=4;spacingRight=4;overflow=hidden;rotatable=0;points=[[0,0.5],[1,0.5]];portConstraint=eastwest;fontStyle=0" parent="0T9Lj9NKAyRKnuzEVl1E-66" vertex="1">
          <mxGeometry y="258" width="290" height="26" as="geometry" />
        </mxCell>
        <mxCell id="0T9Lj9NKAyRKnuzEVl1E-69" value="- generateNeurons(): void" style="text;align=left;verticalAlign=top;spacingLeft=4;spacingRight=4;overflow=hidden;rotatable=0;points=[[0,0.5],[1,0.5]];portConstraint=eastwest;fontStyle=0" parent="0T9Lj9NKAyRKnuzEVl1E-66" vertex="1">
          <mxGeometry y="284" width="290" height="26" as="geometry" />
        </mxCell>
        <mxCell id="0T9Lj9NKAyRKnuzEVl1E-70" value="- generateWeight(): void" style="text;align=left;verticalAlign=top;spacingLeft=4;spacingRight=4;overflow=hidden;rotatable=0;points=[[0,0.5],[1,0.5]];portConstraint=eastwest;fontStyle=0" parent="0T9Lj9NKAyRKnuzEVl1E-66" vertex="1">
          <mxGeometry y="310" width="290" height="26" as="geometry" />
        </mxCell>
        <mxCell id="0T9Lj9NKAyRKnuzEVl1E-84" value="+ getDisplayedCar(): Car" style="text;align=left;verticalAlign=top;spacingLeft=4;spacingRight=4;overflow=hidden;rotatable=0;points=[[0,0.5],[1,0.5]];portConstraint=eastwest;fontStyle=0" parent="0T9Lj9NKAyRKnuzEVl1E-66" vertex="1">
          <mxGeometry y="336" width="290" height="26" as="geometry" />
        </mxCell>
        <mxCell id="0T9Lj9NKAyRKnuzEVl1E-83" value="- update(): void" style="text;align=left;verticalAlign=top;spacingLeft=4;spacingRight=4;overflow=hidden;rotatable=0;points=[[0,0.5],[1,0.5]];portConstraint=eastwest;fontStyle=0" parent="0T9Lj9NKAyRKnuzEVl1E-66" vertex="1">
          <mxGeometry y="362" width="290" height="26" as="geometry" />
        </mxCell>
        <mxCell id="0T9Lj9NKAyRKnuzEVl1E-86" value="+ getDisplayedCar(): Car" style="text;align=left;verticalAlign=top;spacingLeft=4;spacingRight=4;overflow=hidden;rotatable=0;points=[[0,0.5],[1,0.5]];portConstraint=eastwest;fontStyle=0" parent="0T9Lj9NKAyRKnuzEVl1E-66" vertex="1">
          <mxGeometry y="388" width="290" height="26" as="geometry" />
        </mxCell>
        <mxCell id="0T9Lj9NKAyRKnuzEVl1E-92" value="Timer" style="swimlane;fontStyle=2;align=center;verticalAlign=top;childLayout=stackLayout;horizontal=1;startSize=26;horizontalStack=0;resizeParent=1;resizeLast=0;collapsible=1;marginBottom=0;rounded=0;shadow=0;strokeWidth=1;" parent="WIyWlLk6GJQsqaUBKTNV-1" vertex="1">
          <mxGeometry x="-1530" y="816" width="160" height="60" as="geometry">
            <mxRectangle x="230" y="140" width="160" height="26" as="alternateBounds" />
          </mxGeometry>
        </mxCell>
        <mxCell id="0T9Lj9NKAyRKnuzEVl1E-93" value="" style="line;html=1;strokeWidth=1;align=left;verticalAlign=middle;spacingTop=-1;spacingLeft=3;spacingRight=3;rotatable=0;labelPosition=right;points=[];portConstraint=eastwest;" parent="0T9Lj9NKAyRKnuzEVl1E-92" vertex="1">
          <mxGeometry y="26" width="160" height="8" as="geometry" />
        </mxCell>
        <mxCell id="0T9Lj9NKAyRKnuzEVl1E-96" value="+ handle(long): void" style="text;align=left;verticalAlign=top;spacingLeft=4;spacingRight=4;overflow=hidden;rotatable=0;points=[[0,0.5],[1,0.5]];portConstraint=eastwest;fontStyle=0" parent="0T9Lj9NKAyRKnuzEVl1E-92" vertex="1">
          <mxGeometry y="34" width="160" height="26" as="geometry" />
        </mxCell>
        <mxCell id="0T9Lj9NKAyRKnuzEVl1E-97" value="NeuralNetwork" style="swimlane;fontStyle=2;align=center;verticalAlign=top;childLayout=stackLayout;horizontal=1;startSize=26;horizontalStack=0;resizeParent=1;resizeLast=0;collapsible=1;marginBottom=0;rounded=0;shadow=0;strokeWidth=1;" parent="WIyWlLk6GJQsqaUBKTNV-1" vertex="1">
          <mxGeometry x="-598" y="1110" width="290" height="330" as="geometry">
            <mxRectangle x="230" y="140" width="160" height="26" as="alternateBounds" />
          </mxGeometry>
        </mxCell>
        <mxCell id="0T9Lj9NKAyRKnuzEVl1E-98" value="&lt;span style=&quot;color: rgb(0, 0, 0); font-family: Helvetica; font-size: 12px; font-style: normal; font-variant-ligatures: normal; font-variant-caps: normal; font-weight: 400; letter-spacing: normal; orphans: 2; text-align: left; text-indent: 0px; text-transform: none; widows: 2; word-spacing: 0px; -webkit-text-stroke-width: 0px; background-color: rgb(251, 251, 251); float: none; display: inline !important;&quot;&gt;- hiddenLayers: HiddenLayer[]&lt;/span&gt;" style="text;whiteSpace=wrap;html=1;" parent="0T9Lj9NKAyRKnuzEVl1E-97" vertex="1">
          <mxGeometry y="26" width="290" height="24" as="geometry" />
        </mxCell>
        <mxCell id="0T9Lj9NKAyRKnuzEVl1E-99" value="&lt;span style=&quot;color: rgb(0, 0, 0); font-family: Helvetica; font-size: 12px; font-style: normal; font-variant-ligatures: normal; font-variant-caps: normal; font-weight: 400; letter-spacing: normal; orphans: 2; text-align: left; text-indent: 0px; text-transform: none; widows: 2; word-spacing: 0px; -webkit-text-stroke-width: 0px; background-color: rgb(251, 251, 251); float: none; display: inline !important;&quot;&gt;- activation: double[][]&lt;/span&gt;" style="text;whiteSpace=wrap;html=1;fontStyle=0" parent="0T9Lj9NKAyRKnuzEVl1E-97" vertex="1">
          <mxGeometry y="50" width="290" height="20" as="geometry" />
        </mxCell>
        <mxCell id="0T9Lj9NKAyRKnuzEVl1E-100" value="&lt;span style=&quot;color: rgb(0, 0, 0); font-family: Helvetica; font-size: 12px; font-style: normal; font-variant-ligatures: normal; font-variant-caps: normal; font-weight: 400; letter-spacing: normal; orphans: 2; text-align: left; text-indent: 0px; text-transform: none; widows: 2; word-spacing: 0px; -webkit-text-stroke-width: 0px; background-color: rgb(251, 251, 251); float: none; display: inline !important;&quot;&gt;- learningRate: float&lt;/span&gt;" style="text;whiteSpace=wrap;html=1;fontStyle=0" parent="0T9Lj9NKAyRKnuzEVl1E-97" vertex="1">
          <mxGeometry y="70" width="290" height="20" as="geometry" />
        </mxCell>
        <mxCell id="0T9Lj9NKAyRKnuzEVl1E-101" value="- layers: int[]" style="text;whiteSpace=wrap;html=1;" parent="0T9Lj9NKAyRKnuzEVl1E-97" vertex="1">
          <mxGeometry y="90" width="290" height="20" as="geometry" />
        </mxCell>
        <mxCell id="0T9Lj9NKAyRKnuzEVl1E-109" value="" style="line;html=1;strokeWidth=1;align=left;verticalAlign=middle;spacingTop=-1;spacingLeft=3;spacingRight=3;rotatable=0;labelPosition=right;points=[];portConstraint=eastwest;" parent="0T9Lj9NKAyRKnuzEVl1E-97" vertex="1">
          <mxGeometry y="110" width="290" height="8" as="geometry" />
        </mxCell>
        <mxCell id="0T9Lj9NKAyRKnuzEVl1E-110" value="+ NeuralNetwork(float, int[])" style="text;align=left;verticalAlign=top;spacingLeft=4;spacingRight=4;overflow=hidden;rotatable=0;points=[[0,0.5],[1,0.5]];portConstraint=eastwest;fontStyle=0" parent="0T9Lj9NKAyRKnuzEVl1E-97" vertex="1">
          <mxGeometry y="118" width="290" height="26" as="geometry" />
        </mxCell>
        <mxCell id="0T9Lj9NKAyRKnuzEVl1E-111" value="+ clone(): NeuralNetwork" style="text;align=left;verticalAlign=top;spacingLeft=4;spacingRight=4;overflow=hidden;rotatable=0;points=[[0,0.5],[1,0.5]];portConstraint=eastwest;fontStyle=0" parent="0T9Lj9NKAyRKnuzEVl1E-97" vertex="1">
          <mxGeometry y="144" width="290" height="26" as="geometry" />
        </mxCell>
        <mxCell id="0T9Lj9NKAyRKnuzEVl1E-112" value="+ predict(double[]): double[]" style="text;align=left;verticalAlign=top;spacingLeft=4;spacingRight=4;overflow=hidden;rotatable=0;points=[[0,0.5],[1,0.5]];portConstraint=eastwest;fontStyle=0" parent="0T9Lj9NKAyRKnuzEVl1E-97" vertex="1">
          <mxGeometry y="170" width="290" height="26" as="geometry" />
        </mxCell>
        <mxCell id="0T9Lj9NKAyRKnuzEVl1E-113" value="+ mutate(): void" style="text;align=left;verticalAlign=top;spacingLeft=4;spacingRight=4;overflow=hidden;rotatable=0;points=[[0,0.5],[1,0.5]];portConstraint=eastwest;fontStyle=0" parent="0T9Lj9NKAyRKnuzEVl1E-97" vertex="1">
          <mxGeometry y="196" width="290" height="26" as="geometry" />
        </mxCell>
        <mxCell id="0T9Lj9NKAyRKnuzEVl1E-114" value="+ getActivations(): double[][]" style="text;align=left;verticalAlign=top;spacingLeft=4;spacingRight=4;overflow=hidden;rotatable=0;points=[[0,0.5],[1,0.5]];portConstraint=eastwest;fontStyle=0" parent="0T9Lj9NKAyRKnuzEVl1E-97" vertex="1">
          <mxGeometry y="222" width="290" height="26" as="geometry" />
        </mxCell>
        <mxCell id="0T9Lj9NKAyRKnuzEVl1E-115" value="+ getHiddenLayers(): HiddenLayer[]" style="text;align=left;verticalAlign=top;spacingLeft=4;spacingRight=4;overflow=hidden;rotatable=0;points=[[0,0.5],[1,0.5]];portConstraint=eastwest;fontStyle=0" parent="0T9Lj9NKAyRKnuzEVl1E-97" vertex="1">
          <mxGeometry y="248" width="290" height="26" as="geometry" />
        </mxCell>
        <mxCell id="0T9Lj9NKAyRKnuzEVl1E-116" value="+ getLayers(): int[]" style="text;align=left;verticalAlign=top;spacingLeft=4;spacingRight=4;overflow=hidden;rotatable=0;points=[[0,0.5],[1,0.5]];portConstraint=eastwest;fontStyle=0" parent="0T9Lj9NKAyRKnuzEVl1E-97" vertex="1">
          <mxGeometry y="274" width="290" height="26" as="geometry" />
        </mxCell>
        <mxCell id="0T9Lj9NKAyRKnuzEVl1E-117" value="+ toString(): String" style="text;align=left;verticalAlign=top;spacingLeft=4;spacingRight=4;overflow=hidden;rotatable=0;points=[[0,0.5],[1,0.5]];portConstraint=eastwest;fontStyle=0" parent="0T9Lj9NKAyRKnuzEVl1E-97" vertex="1">
          <mxGeometry y="300" width="290" height="26" as="geometry" />
        </mxCell>
        <mxCell id="0T9Lj9NKAyRKnuzEVl1E-118" value="SelfDrivingCar" style="swimlane;fontStyle=2;align=center;verticalAlign=top;childLayout=stackLayout;horizontal=1;startSize=26;horizontalStack=0;resizeParent=1;resizeLast=0;collapsible=1;marginBottom=0;rounded=0;shadow=0;strokeWidth=1;" parent="WIyWlLk6GJQsqaUBKTNV-1" vertex="1">
          <mxGeometry x="-1090" y="816" width="160" height="86" as="geometry">
            <mxRectangle x="230" y="140" width="160" height="26" as="alternateBounds" />
          </mxGeometry>
        </mxCell>
        <mxCell id="0T9Lj9NKAyRKnuzEVl1E-119" value="" style="line;html=1;strokeWidth=1;align=left;verticalAlign=middle;spacingTop=-1;spacingLeft=3;spacingRight=3;rotatable=0;labelPosition=right;points=[];portConstraint=eastwest;" parent="0T9Lj9NKAyRKnuzEVl1E-118" vertex="1">
          <mxGeometry y="26" width="160" height="8" as="geometry" />
        </mxCell>
        <mxCell id="0T9Lj9NKAyRKnuzEVl1E-120" value="+ start(PrimaryStage): void" style="text;align=left;verticalAlign=top;spacingLeft=4;spacingRight=4;overflow=hidden;rotatable=0;points=[[0,0.5],[1,0.5]];portConstraint=eastwest;fontStyle=0" parent="0T9Lj9NKAyRKnuzEVl1E-118" vertex="1">
          <mxGeometry y="34" width="160" height="26" as="geometry" />
        </mxCell>
        <mxCell id="0T9Lj9NKAyRKnuzEVl1E-121" value="+main(String[]): void" style="text;align=left;verticalAlign=top;spacingLeft=4;spacingRight=4;overflow=hidden;rotatable=0;points=[[0,0.5],[1,0.5]];portConstraint=eastwest;fontStyle=4" parent="0T9Lj9NKAyRKnuzEVl1E-118" vertex="1">
          <mxGeometry y="60" width="160" height="26" as="geometry" />
        </mxCell>
        <mxCell id="0T9Lj9NKAyRKnuzEVl1E-122" value="Sensor" style="swimlane;fontStyle=2;align=center;verticalAlign=top;childLayout=stackLayout;horizontal=1;startSize=26;horizontalStack=0;resizeParent=1;resizeLast=0;collapsible=1;marginBottom=0;rounded=0;shadow=0;strokeWidth=1;" parent="WIyWlLk6GJQsqaUBKTNV-1" vertex="1">
          <mxGeometry x="-1300" y="188" width="290" height="182" as="geometry">
            <mxRectangle x="230" y="140" width="160" height="26" as="alternateBounds" />
          </mxGeometry>
        </mxCell>
        <mxCell id="0T9Lj9NKAyRKnuzEVl1E-123" value="&lt;span style=&quot;color: rgb(0, 0, 0); font-family: Helvetica; font-size: 12px; font-style: normal; font-variant-ligatures: normal; font-variant-caps: normal; font-weight: 400; letter-spacing: normal; orphans: 2; text-align: left; text-indent: 0px; text-transform: none; widows: 2; word-spacing: 0px; -webkit-text-stroke-width: 0px; background-color: rgb(251, 251, 251); float: none; display: inline !important;&quot;&gt;&lt;u&gt;- LENGTH: double&lt;/u&gt;&lt;/span&gt;" style="text;whiteSpace=wrap;html=1;" parent="0T9Lj9NKAyRKnuzEVl1E-122" vertex="1">
          <mxGeometry y="26" width="290" height="24" as="geometry" />
        </mxCell>
        <mxCell id="0T9Lj9NKAyRKnuzEVl1E-124" value="&lt;span style=&quot;color: rgb(0, 0, 0); font-family: Helvetica; font-size: 12px; font-style: normal; font-variant-ligatures: normal; font-variant-caps: normal; font-weight: 400; letter-spacing: normal; orphans: 2; text-align: left; text-indent: 0px; text-transform: none; widows: 2; word-spacing: 0px; -webkit-text-stroke-width: 0px; background-color: rgb(251, 251, 251); float: none; display: inline !important;&quot;&gt;- projectedNormalizedLength: double&lt;/span&gt;" style="text;whiteSpace=wrap;html=1;fontStyle=0" parent="0T9Lj9NKAyRKnuzEVl1E-122" vertex="1">
          <mxGeometry y="50" width="290" height="20" as="geometry" />
        </mxCell>
        <mxCell id="0T9Lj9NKAyRKnuzEVl1E-127" value="" style="line;html=1;strokeWidth=1;align=left;verticalAlign=middle;spacingTop=-1;spacingLeft=3;spacingRight=3;rotatable=0;labelPosition=right;points=[];portConstraint=eastwest;" parent="0T9Lj9NKAyRKnuzEVl1E-122" vertex="1">
          <mxGeometry y="70" width="290" height="8" as="geometry" />
        </mxCell>
        <mxCell id="0T9Lj9NKAyRKnuzEVl1E-128" value="+ Sensor(int, Car)" style="text;align=left;verticalAlign=top;spacingLeft=4;spacingRight=4;overflow=hidden;rotatable=0;points=[[0,0.5],[1,0.5]];portConstraint=eastwest;fontStyle=0" parent="0T9Lj9NKAyRKnuzEVl1E-122" vertex="1">
          <mxGeometry y="78" width="290" height="26" as="geometry" />
        </mxCell>
        <mxCell id="0T9Lj9NKAyRKnuzEVl1E-129" value="+ getLength(): double" style="text;align=left;verticalAlign=top;spacingLeft=4;spacingRight=4;overflow=hidden;rotatable=0;points=[[0,0.5],[1,0.5]];portConstraint=eastwest;fontStyle=4" parent="0T9Lj9NKAyRKnuzEVl1E-122" vertex="1">
          <mxGeometry y="104" width="290" height="26" as="geometry" />
        </mxCell>
        <mxCell id="0T9Lj9NKAyRKnuzEVl1E-130" value="+ getProjectedLength(): double" style="text;align=left;verticalAlign=top;spacingLeft=4;spacingRight=4;overflow=hidden;rotatable=0;points=[[0,0.5],[1,0.5]];portConstraint=eastwest;fontStyle=0" parent="0T9Lj9NKAyRKnuzEVl1E-122" vertex="1">
          <mxGeometry y="130" width="290" height="26" as="geometry" />
        </mxCell>
        <mxCell id="0T9Lj9NKAyRKnuzEVl1E-136" value="+ setProjectedLength(double): void" style="text;align=left;verticalAlign=top;spacingLeft=4;spacingRight=4;overflow=hidden;rotatable=0;points=[[0,0.5],[1,0.5]];portConstraint=eastwest;fontStyle=0" parent="0T9Lj9NKAyRKnuzEVl1E-122" vertex="1">
          <mxGeometry y="156" width="290" height="26" as="geometry" />
        </mxCell>
        <mxCell id="0T9Lj9NKAyRKnuzEVl1E-137" value="WelcomeController" style="swimlane;fontStyle=2;align=center;verticalAlign=top;childLayout=stackLayout;horizontal=1;startSize=26;horizontalStack=0;resizeParent=1;resizeLast=0;collapsible=1;marginBottom=0;rounded=0;shadow=0;strokeWidth=1;" parent="WIyWlLk6GJQsqaUBKTNV-1" vertex="1">
          <mxGeometry x="-1380" y="999" width="320" height="320" as="geometry">
            <mxRectangle x="230" y="140" width="160" height="26" as="alternateBounds" />
          </mxGeometry>
        </mxCell>
        <mxCell id="0T9Lj9NKAyRKnuzEVl1E-143" value="&lt;span style=&quot;color: rgb(0, 0, 0); font-family: Helvetica; font-size: 12px; font-variant-ligatures: normal; font-variant-caps: normal; font-weight: 400; letter-spacing: normal; orphans: 2; text-align: left; text-indent: 0px; text-transform: none; widows: 2; word-spacing: 0px; -webkit-text-stroke-width: 0px; background-color: rgb(251, 251, 251); float: none; display: inline !important;&quot;&gt;&lt;i style=&quot;&quot;&gt;- welcome: Label&lt;/i&gt;&lt;/span&gt;" style="text;whiteSpace=wrap;html=1;" parent="0T9Lj9NKAyRKnuzEVl1E-137" vertex="1">
          <mxGeometry y="26" width="320" height="20" as="geometry" />
        </mxCell>
        <mxCell id="0T9Lj9NKAyRKnuzEVl1E-144" value="&lt;span style=&quot;color: rgb(0, 0, 0); font-family: Helvetica; font-size: 12px; font-variant-ligatures: normal; font-variant-caps: normal; font-weight: 400; letter-spacing: normal; orphans: 2; text-align: left; text-indent: 0px; text-transform: none; widows: 2; word-spacing: 0px; -webkit-text-stroke-width: 0px; background-color: rgb(251, 251, 251); float: none; display: inline !important;&quot;&gt;&lt;i style=&quot;&quot;&gt;- start: Button&lt;/i&gt;&lt;/span&gt;" style="text;whiteSpace=wrap;html=1;" parent="0T9Lj9NKAyRKnuzEVl1E-137" vertex="1">
          <mxGeometry y="46" width="320" height="20" as="geometry" />
        </mxCell>
        <mxCell id="0T9Lj9NKAyRKnuzEVl1E-145" value="&lt;span style=&quot;color: rgb(0, 0, 0); font-family: Helvetica; font-size: 12px; font-variant-ligatures: normal; font-variant-caps: normal; font-weight: 400; letter-spacing: normal; orphans: 2; text-align: left; text-indent: 0px; text-transform: none; widows: 2; word-spacing: 0px; -webkit-text-stroke-width: 0px; background-color: rgb(251, 251, 251); float: none; display: inline !important;&quot;&gt;&lt;i style=&quot;&quot;&gt;- exit: Button&lt;/i&gt;&lt;/span&gt;" style="text;whiteSpace=wrap;html=1;" parent="0T9Lj9NKAyRKnuzEVl1E-137" vertex="1">
          <mxGeometry y="66" width="320" height="20" as="geometry" />
        </mxCell>
        <mxCell id="0T9Lj9NKAyRKnuzEVl1E-146" value="&lt;span style=&quot;color: rgb(0, 0, 0); font-family: Helvetica; font-size: 12px; font-variant-ligatures: normal; font-variant-caps: normal; font-weight: 400; letter-spacing: normal; orphans: 2; text-align: left; text-indent: 0px; text-transform: none; widows: 2; word-spacing: 0px; -webkit-text-stroke-width: 0px; background-color: rgb(251, 251, 251); float: none; display: inline !important;&quot;&gt;&lt;i style=&quot;&quot;&gt;- volumeSlider: Slider&lt;/i&gt;&lt;/span&gt;" style="text;whiteSpace=wrap;html=1;" parent="0T9Lj9NKAyRKnuzEVl1E-137" vertex="1">
          <mxGeometry y="86" width="320" height="20" as="geometry" />
        </mxCell>
        <mxCell id="0T9Lj9NKAyRKnuzEVl1E-147" value="&lt;span style=&quot;color: rgb(0, 0, 0); font-family: Helvetica; font-size: 12px; font-variant-ligatures: normal; font-variant-caps: normal; font-weight: 400; letter-spacing: normal; orphans: 2; text-align: left; text-indent: 0px; text-transform: none; widows: 2; word-spacing: 0px; -webkit-text-stroke-width: 0px; background-color: rgb(251, 251, 251); float: none; display: inline !important;&quot;&gt;&lt;i style=&quot;&quot;&gt;- player: MediaPlayer&lt;/i&gt;&lt;/span&gt;" style="text;whiteSpace=wrap;html=1;" parent="0T9Lj9NKAyRKnuzEVl1E-137" vertex="1">
          <mxGeometry y="106" width="320" height="20" as="geometry" />
        </mxCell>
        <mxCell id="0T9Lj9NKAyRKnuzEVl1E-148" value="&lt;span style=&quot;color: rgb(0, 0, 0); font-family: Helvetica; font-size: 12px; font-variant-ligatures: normal; font-variant-caps: normal; font-weight: 400; letter-spacing: normal; orphans: 2; text-align: left; text-indent: 0px; text-transform: none; widows: 2; word-spacing: 0px; -webkit-text-stroke-width: 0px; background-color: rgb(251, 251, 251); float: none; display: inline !important;&quot;&gt;&lt;i style=&quot;&quot;&gt;- simulation: Simulation&lt;/i&gt;&lt;/span&gt;" style="text;whiteSpace=wrap;html=1;" parent="0T9Lj9NKAyRKnuzEVl1E-137" vertex="1">
          <mxGeometry y="126" width="320" height="20" as="geometry" />
        </mxCell>
        <mxCell id="0T9Lj9NKAyRKnuzEVl1E-149" value="" style="line;html=1;strokeWidth=1;align=left;verticalAlign=middle;spacingTop=-1;spacingLeft=3;spacingRight=3;rotatable=0;labelPosition=right;points=[];portConstraint=eastwest;" parent="0T9Lj9NKAyRKnuzEVl1E-137" vertex="1">
          <mxGeometry y="146" width="320" height="8" as="geometry" />
        </mxCell>
        <mxCell id="0T9Lj9NKAyRKnuzEVl1E-150" value="+ initialize(URL, ResourceBundle): void" style="text;align=left;verticalAlign=top;spacingLeft=4;spacingRight=4;overflow=hidden;rotatable=0;points=[[0,0.5],[1,0.5]];portConstraint=eastwest;fontStyle=0" parent="0T9Lj9NKAyRKnuzEVl1E-137" vertex="1">
          <mxGeometry y="154" width="320" height="26" as="geometry" />
        </mxCell>
        <mxCell id="0T9Lj9NKAyRKnuzEVl1E-151" value="+ changeVolume(Slider, Media): void" style="text;align=left;verticalAlign=top;spacingLeft=4;spacingRight=4;overflow=hidden;rotatable=0;points=[[0,0.5],[1,0.5]];portConstraint=eastwest;fontStyle=0" parent="0T9Lj9NKAyRKnuzEVl1E-137" vertex="1">
          <mxGeometry y="180" width="320" height="26" as="geometry" />
        </mxCell>
        <mxCell id="0T9Lj9NKAyRKnuzEVl1E-152" value="+ highlightButton(Button): void" style="text;align=left;verticalAlign=top;spacingLeft=4;spacingRight=4;overflow=hidden;rotatable=0;points=[[0,0.5],[1,0.5]];portConstraint=eastwest;fontStyle=0" parent="0T9Lj9NKAyRKnuzEVl1E-137" vertex="1">
          <mxGeometry y="206" width="320" height="26" as="geometry" />
        </mxCell>
        <mxCell id="0T9Lj9NKAyRKnuzEVl1E-153" value="+ test(): void" style="text;align=left;verticalAlign=top;spacingLeft=4;spacingRight=4;overflow=hidden;rotatable=0;points=[[0,0.5],[1,0.5]];portConstraint=eastwest;fontStyle=0" parent="0T9Lj9NKAyRKnuzEVl1E-137" vertex="1">
          <mxGeometry y="232" width="320" height="26" as="geometry" />
        </mxCell>
        <mxCell id="0T9Lj9NKAyRKnuzEVl1E-154" value="+ checkCollisionWithWall(List&lt;Shape&gt;, int): double" style="text;align=left;verticalAlign=top;spacingLeft=4;spacingRight=4;overflow=hidden;rotatable=0;points=[[0,0.5],[1,0.5]];portConstraint=eastwest;fontStyle=0" parent="0T9Lj9NKAyRKnuzEVl1E-137" vertex="1">
          <mxGeometry y="258" width="320" height="26" as="geometry" />
        </mxCell>
        <mxCell id="0T9Lj9NKAyRKnuzEVl1E-155" value="- calculateDistanceToPoint(Line, double, double): double" style="text;align=left;verticalAlign=top;spacingLeft=4;spacingRight=4;overflow=hidden;rotatable=0;points=[[0,0.5],[1,0.5]];portConstraint=eastwest;fontStyle=0" parent="0T9Lj9NKAyRKnuzEVl1E-137" vertex="1">
          <mxGeometry y="284" width="320" height="26" as="geometry" />
        </mxCell>
        <mxCell id="0T9Lj9NKAyRKnuzEVl1E-156" value="style.css&#xa;" style="swimlane;fontStyle=2;align=center;verticalAlign=top;childLayout=stackLayout;horizontal=1;startSize=26;horizontalStack=0;resizeParent=1;resizeLast=0;collapsible=1;marginBottom=0;rounded=0;shadow=0;strokeWidth=1;" parent="WIyWlLk6GJQsqaUBKTNV-1" vertex="1">
          <mxGeometry x="-1315" y="703" width="160" height="34" as="geometry">
            <mxRectangle x="230" y="140" width="160" height="26" as="alternateBounds" />
          </mxGeometry>
        </mxCell>
        <mxCell id="0T9Lj9NKAyRKnuzEVl1E-157" value="" style="line;html=1;strokeWidth=1;align=left;verticalAlign=middle;spacingTop=-1;spacingLeft=3;spacingRight=3;rotatable=0;labelPosition=right;points=[];portConstraint=eastwest;" parent="0T9Lj9NKAyRKnuzEVl1E-156" vertex="1">
          <mxGeometry y="26" width="160" height="8" as="geometry" />
        </mxCell>
        <mxCell id="0T9Lj9NKAyRKnuzEVl1E-161" value="Simulation" style="swimlane;fontStyle=2;align=center;verticalAlign=top;childLayout=stackLayout;horizontal=1;startSize=26;horizontalStack=0;resizeParent=1;resizeLast=0;collapsible=1;marginBottom=0;rounded=0;shadow=0;strokeWidth=1;" parent="WIyWlLk6GJQsqaUBKTNV-1" vertex="1">
          <mxGeometry x="-1320" y="816" width="170" height="64" as="geometry">
            <mxRectangle x="230" y="140" width="160" height="26" as="alternateBounds" />
          </mxGeometry>
        </mxCell>
        <mxCell id="0T9Lj9NKAyRKnuzEVl1E-162" value="" style="line;html=1;strokeWidth=1;align=left;verticalAlign=middle;spacingTop=-1;spacingLeft=3;spacingRight=3;rotatable=0;labelPosition=right;points=[];portConstraint=eastwest;" parent="0T9Lj9NKAyRKnuzEVl1E-161" vertex="1">
          <mxGeometry y="26" width="170" height="8" as="geometry" />
        </mxCell>
        <mxCell id="239VDCw83_5TDXjA1n3P-34" value="-&amp;nbsp;singleSimulation: Simulation" style="text;html=1;align=center;verticalAlign=middle;resizable=0;points=[];autosize=1;strokeColor=none;fillColor=none;" vertex="1" parent="0T9Lj9NKAyRKnuzEVl1E-161">
          <mxGeometry y="34" width="170" height="30" as="geometry" />
        </mxCell>
        <mxCell id="DzD_gmXR54Xh9kk08HtV-0" value="Welcome.FXML" style="html=1;align=center;verticalAlign=middle;dashed=0;whiteSpace=wrap;" parent="WIyWlLk6GJQsqaUBKTNV-1" vertex="1">
          <mxGeometry x="-1620" y="990" width="180" height="60" as="geometry" />
        </mxCell>
        <mxCell id="239VDCw83_5TDXjA1n3P-6" value="&lt;&lt;Interface&gt;&gt; Drivable" style="swimlane;fontStyle=2;align=center;verticalAlign=top;childLayout=stackLayout;horizontal=1;startSize=26;horizontalStack=0;resizeParent=1;resizeLast=0;collapsible=1;marginBottom=0;rounded=0;shadow=0;strokeWidth=1;" vertex="1" parent="WIyWlLk6GJQsqaUBKTNV-1">
          <mxGeometry x="-868" y="640" width="270" height="140" as="geometry">
            <mxRectangle x="230" y="140" width="160" height="26" as="alternateBounds" />
          </mxGeometry>
        </mxCell>
        <mxCell id="239VDCw83_5TDXjA1n3P-9" value="- SENSOR_COUNT: int" style="text;align=left;verticalAlign=top;spacingLeft=4;spacingRight=4;overflow=hidden;rotatable=0;points=[[0,0.5],[1,0.5]];portConstraint=eastwest;rounded=0;shadow=0;html=0;fontStyle=4" vertex="1" parent="239VDCw83_5TDXjA1n3P-6">
          <mxGeometry y="26" width="270" height="26" as="geometry" />
        </mxCell>
        <mxCell id="239VDCw83_5TDXjA1n3P-17" value="" style="line;html=1;strokeWidth=1;align=left;verticalAlign=middle;spacingTop=-1;spacingLeft=3;spacingRight=3;rotatable=0;labelPosition=right;points=[];portConstraint=eastwest;" vertex="1" parent="239VDCw83_5TDXjA1n3P-6">
          <mxGeometry y="52" width="270" height="8" as="geometry" />
        </mxCell>
        <mxCell id="239VDCw83_5TDXjA1n3P-18" value="+ setANGULAR_VELOCITY(double): void" style="text;align=left;verticalAlign=top;spacingLeft=4;spacingRight=4;overflow=hidden;rotatable=0;points=[[0,0.5],[1,0.5]];portConstraint=eastwest;rounded=0;shadow=0;html=0;fontStyle=4" vertex="1" parent="239VDCw83_5TDXjA1n3P-6">
          <mxGeometry y="60" width="270" height="26" as="geometry" />
        </mxCell>
        <mxCell id="239VDCw83_5TDXjA1n3P-31" value="+ setVELOCITY(double): void" style="text;align=left;verticalAlign=top;spacingLeft=4;spacingRight=4;overflow=hidden;rotatable=0;points=[[0,0.5],[1,0.5]];portConstraint=eastwest;rounded=0;shadow=0;html=0;fontStyle=4" vertex="1" parent="239VDCw83_5TDXjA1n3P-6">
          <mxGeometry y="86" width="270" height="26" as="geometry" />
        </mxCell>
        <mxCell id="239VDCw83_5TDXjA1n3P-32" value="+ setLearningRate(float): void" style="text;align=left;verticalAlign=top;spacingLeft=4;spacingRight=4;overflow=hidden;rotatable=0;points=[[0,0.5],[1,0.5]];portConstraint=eastwest;rounded=0;shadow=0;html=0;fontStyle=4" vertex="1" parent="239VDCw83_5TDXjA1n3P-6">
          <mxGeometry y="112" width="270" height="26" as="geometry" />
        </mxCell>
        <mxCell id="239VDCw83_5TDXjA1n3P-36" value="" style="html=1;labelBackgroundColor=#ffffff;startArrow=none;startFill=0;startSize=6;endArrow=classic;endFill=1;endSize=6;jettySize=auto;orthogonalLoop=1;strokeWidth=1;dashed=1;fontSize=14;rounded=0;entryX=0.5;entryY=0;entryDx=0;entryDy=0;exitX=0.497;exitY=1.039;exitDx=0;exitDy=0;exitPerimeter=0;" edge="1" parent="WIyWlLk6GJQsqaUBKTNV-1" source="0T9Lj9NKAyRKnuzEVl1E-32" target="239VDCw83_5TDXjA1n3P-6">
          <mxGeometry width="60" height="60" relative="1" as="geometry">
            <mxPoint x="-730" y="610" as="sourcePoint" />
            <mxPoint x="-410" y="540" as="targetPoint" />
          </mxGeometry>
        </mxCell>
        <mxCell id="239VDCw83_5TDXjA1n3P-37" value="javafx.scene.shape.Circle" style="swimlane;fontStyle=2;align=center;verticalAlign=top;childLayout=stackLayout;horizontal=1;startSize=26;horizontalStack=0;resizeParent=1;resizeLast=0;collapsible=1;marginBottom=0;rounded=0;shadow=0;strokeWidth=1;" vertex="1" parent="WIyWlLk6GJQsqaUBKTNV-1">
          <mxGeometry x="-828" y="20" width="190" height="34" as="geometry">
            <mxRectangle x="230" y="140" width="160" height="26" as="alternateBounds" />
          </mxGeometry>
        </mxCell>
        <mxCell id="239VDCw83_5TDXjA1n3P-38" value="" style="line;html=1;strokeWidth=1;align=left;verticalAlign=middle;spacingTop=-1;spacingLeft=3;spacingRight=3;rotatable=0;labelPosition=right;points=[];portConstraint=eastwest;" vertex="1" parent="239VDCw83_5TDXjA1n3P-37">
          <mxGeometry y="26" width="190" height="8" as="geometry" />
        </mxCell>
        <mxCell id="239VDCw83_5TDXjA1n3P-44" value="Extends" style="endArrow=block;endSize=16;endFill=0;html=1;rounded=0;exitX=0.5;exitY=0;exitDx=0;exitDy=0;entryX=0.494;entryY=0.875;entryDx=0;entryDy=0;entryPerimeter=0;" edge="1" parent="WIyWlLk6GJQsqaUBKTNV-1" source="0T9Lj9NKAyRKnuzEVl1E-6" target="239VDCw83_5TDXjA1n3P-38">
          <mxGeometry width="160" relative="1" as="geometry">
            <mxPoint x="-520" y="70" as="sourcePoint" />
            <mxPoint x="-360" y="70" as="targetPoint" />
          </mxGeometry>
        </mxCell>
        <mxCell id="239VDCw83_5TDXjA1n3P-45" value="" style="endArrow=diamondThin;endFill=0;endSize=24;html=1;rounded=0;exitX=0.5;exitY=0;exitDx=0;exitDy=0;entryX=0.5;entryY=1;entryDx=0;entryDy=0;" edge="1" parent="WIyWlLk6GJQsqaUBKTNV-1" source="0T9Lj9NKAyRKnuzEVl1E-12" target="0T9Lj9NKAyRKnuzEVl1E-0">
          <mxGeometry width="160" relative="1" as="geometry">
            <mxPoint x="-410" y="460" as="sourcePoint" />
            <mxPoint x="-340" y="430" as="targetPoint" />
          </mxGeometry>
        </mxCell>
        <mxCell id="239VDCw83_5TDXjA1n3P-46" value="" style="endArrow=diamondThin;endFill=1;endSize=24;html=1;rounded=0;exitX=0.5;exitY=0;exitDx=0;exitDy=0;entryX=0.5;entryY=0;entryDx=0;entryDy=0;" edge="1" parent="WIyWlLk6GJQsqaUBKTNV-1" source="0T9Lj9NKAyRKnuzEVl1E-66" target="0T9Lj9NKAyRKnuzEVl1E-97">
          <mxGeometry width="160" relative="1" as="geometry">
            <mxPoint x="-840" y="890" as="sourcePoint" />
            <mxPoint x="-490" y="910" as="targetPoint" />
            <Array as="points">
              <mxPoint x="-805" y="910" />
              <mxPoint x="-453" y="910" />
            </Array>
          </mxGeometry>
        </mxCell>
        <mxCell id="239VDCw83_5TDXjA1n3P-47" value="" style="endArrow=diamondThin;endFill=1;endSize=24;html=1;rounded=0;entryX=0.5;entryY=0;entryDx=0;entryDy=0;exitX=0.532;exitY=1.144;exitDx=0;exitDy=0;exitPerimeter=0;" edge="1" parent="WIyWlLk6GJQsqaUBKTNV-1" source="0T9Lj9NKAyRKnuzEVl1E-40" target="0T9Lj9NKAyRKnuzEVl1E-97">
          <mxGeometry width="160" relative="1" as="geometry">
            <mxPoint x="-240" y="1050" as="sourcePoint" />
            <mxPoint x="-210" y="1050" as="targetPoint" />
            <Array as="points">
              <mxPoint x="-335" y="990" />
              <mxPoint x="-450" y="990" />
            </Array>
          </mxGeometry>
        </mxCell>
        <mxCell id="239VDCw83_5TDXjA1n3P-48" value="" style="endArrow=diamondThin;endFill=1;endSize=24;html=1;rounded=0;exitX=0.5;exitY=0;exitDx=0;exitDy=0;entryX=0;entryY=0.03;entryDx=0;entryDy=0;entryPerimeter=0;" edge="1" parent="WIyWlLk6GJQsqaUBKTNV-1" source="0T9Lj9NKAyRKnuzEVl1E-122" target="0T9Lj9NKAyRKnuzEVl1E-6">
          <mxGeometry width="160" relative="1" as="geometry">
            <mxPoint x="-1140" y="70" as="sourcePoint" />
            <mxPoint x="-920" y="60" as="targetPoint" />
            <Array as="points">
              <mxPoint x="-1155" y="115" />
            </Array>
          </mxGeometry>
        </mxCell>
        <mxCell id="239VDCw83_5TDXjA1n3P-50" value="" style="endArrow=diamondThin;endFill=0;endSize=24;html=1;rounded=0;exitX=0.5;exitY=0;exitDx=0;exitDy=0;entryX=0.5;entryY=1;entryDx=0;entryDy=0;" edge="1" parent="WIyWlLk6GJQsqaUBKTNV-1" source="0T9Lj9NKAyRKnuzEVl1E-161" target="0T9Lj9NKAyRKnuzEVl1E-156">
          <mxGeometry width="160" relative="1" as="geometry">
            <mxPoint x="-1220" y="790" as="sourcePoint" />
            <mxPoint x="-1060" y="790" as="targetPoint" />
          </mxGeometry>
        </mxCell>
        <mxCell id="239VDCw83_5TDXjA1n3P-51" value="" style="endArrow=diamondThin;endFill=0;endSize=24;html=1;rounded=0;entryX=1;entryY=0.25;entryDx=0;entryDy=0;exitX=0;exitY=0.25;exitDx=0;exitDy=0;" edge="1" parent="WIyWlLk6GJQsqaUBKTNV-1" source="0T9Lj9NKAyRKnuzEVl1E-161" target="0T9Lj9NKAyRKnuzEVl1E-92">
          <mxGeometry width="160" relative="1" as="geometry">
            <mxPoint x="-1330" y="831" as="sourcePoint" />
            <mxPoint x="-1225" y="747" as="targetPoint" />
          </mxGeometry>
        </mxCell>
        <mxCell id="239VDCw83_5TDXjA1n3P-52" value="" style="endArrow=diamondThin;endFill=1;endSize=24;html=1;rounded=0;exitX=1;exitY=0.25;exitDx=0;exitDy=0;entryX=0;entryY=0.25;entryDx=0;entryDy=0;" edge="1" parent="WIyWlLk6GJQsqaUBKTNV-1" source="0T9Lj9NKAyRKnuzEVl1E-161" target="0T9Lj9NKAyRKnuzEVl1E-118">
          <mxGeometry width="160" relative="1" as="geometry">
            <mxPoint x="-1080" y="730" as="sourcePoint" />
            <mxPoint x="-920" y="730" as="targetPoint" />
          </mxGeometry>
        </mxCell>
        <mxCell id="239VDCw83_5TDXjA1n3P-53" value="" style="endArrow=diamondThin;endFill=1;endSize=24;html=1;rounded=0;exitX=0.5;exitY=0;exitDx=0;exitDy=0;" edge="1" parent="WIyWlLk6GJQsqaUBKTNV-1" source="0T9Lj9NKAyRKnuzEVl1E-137" target="0T9Lj9NKAyRKnuzEVl1E-118">
          <mxGeometry width="160" relative="1" as="geometry">
            <mxPoint x="-1130" y="950" as="sourcePoint" />
            <mxPoint x="-1040" y="960" as="targetPoint" />
          </mxGeometry>
        </mxCell>
        <mxCell id="239VDCw83_5TDXjA1n3P-55" value="" style="endArrow=diamondThin;endFill=1;endSize=24;html=1;rounded=0;exitX=1;exitY=0.5;exitDx=0;exitDy=0;entryX=0.007;entryY=0.062;entryDx=0;entryDy=0;entryPerimeter=0;" edge="1" parent="WIyWlLk6GJQsqaUBKTNV-1" source="DzD_gmXR54Xh9kk08HtV-0" target="0T9Lj9NKAyRKnuzEVl1E-137">
          <mxGeometry width="160" relative="1" as="geometry">
            <mxPoint x="-1580" y="1250" as="sourcePoint" />
            <mxPoint x="-1420" y="1250" as="targetPoint" />
          </mxGeometry>
        </mxCell>
        <mxCell id="239VDCw83_5TDXjA1n3P-56" value="" style="endArrow=diamondThin;endFill=0;endSize=24;html=1;rounded=0;" edge="1" parent="WIyWlLk6GJQsqaUBKTNV-1" source="0T9Lj9NKAyRKnuzEVl1E-6" target="0T9Lj9NKAyRKnuzEVl1E-161">
          <mxGeometry width="160" relative="1" as="geometry">
            <mxPoint x="-1130" y="590" as="sourcePoint" />
            <mxPoint x="-970" y="590" as="targetPoint" />
          </mxGeometry>
        </mxCell>
        <mxCell id="239VDCw83_5TDXjA1n3P-57" value="" style="endArrow=diamondThin;endFill=1;endSize=24;html=1;rounded=0;entryX=0.5;entryY=0;entryDx=0;entryDy=0;" edge="1" parent="WIyWlLk6GJQsqaUBKTNV-1" source="0T9Lj9NKAyRKnuzEVl1E-6" target="0T9Lj9NKAyRKnuzEVl1E-66">
          <mxGeometry width="160" relative="1" as="geometry">
            <mxPoint x="-520" y="188" as="sourcePoint" />
            <mxPoint x="-271" y="115" as="targetPoint" />
            <Array as="points">
              <mxPoint x="-950" y="740" />
            </Array>
          </mxGeometry>
        </mxCell>
        <mxCell id="239VDCw83_5TDXjA1n3P-58" value="" style="endArrow=diamondThin;endFill=1;endSize=24;html=1;rounded=0;entryX=0.5;entryY=0;entryDx=0;entryDy=0;" edge="1" parent="WIyWlLk6GJQsqaUBKTNV-1" source="0T9Lj9NKAyRKnuzEVl1E-6" target="0T9Lj9NKAyRKnuzEVl1E-97">
          <mxGeometry width="160" relative="1" as="geometry">
            <mxPoint x="-540" y="110" as="sourcePoint" />
            <mxPoint x="-380" y="110" as="targetPoint" />
            <Array as="points">
              <mxPoint x="-460" y="550" />
            </Array>
          </mxGeometry>
        </mxCell>
      </root>
    </mxGraphModel>
  </diagram>
</mxfile>
